<svg width="14" height="14" viewBox="0 0 14 14" fill="none" xmlns="http://www.w3.org/2000/svg">
<path d="M1.3427 6.34319C0.952174 6.73371 0.952174 7.36688 1.3427 7.7574C1.73322 8.14792 2.36639 8.14792 2.75691 7.7574L1.3427 6.34319ZM6.99955 2.10055L7.70666 1.39344L6.99955 0.686332L6.29245 1.39344L6.99955 2.10055ZM11.2422 7.7574C11.6327 8.14792 12.2659 8.14792 12.6564 7.7574C13.0469 7.36688 13.0469 6.73371 12.6564 6.34319L11.2422 7.7574ZM2.75691 7.7574L7.70666 2.80765L6.29245 1.39344L1.3427 6.34319L2.75691 7.7574ZM6.29245 2.80765L11.2422 7.7574L12.6564 6.34319L7.70666 1.39344L6.29245 2.80765Z" fill="#E9E9EA"/>
</svg>
