<svg width="14" height="14" viewBox="0 0 14 14" fill="none" xmlns="http://www.w3.org/2000/svg">
<path d="M1.34367 6.34319C0.95315 6.73371 0.95315 7.36688 1.34367 7.7574C1.7342 8.14792 2.36736 8.14792 2.75789 7.7574L1.34367 6.34319ZM7.00053 2.10055L7.70764 1.39344L7.00053 0.686332L6.29342 1.39344L7.00053 2.10055ZM11.2432 7.7574C11.6337 8.14792 12.2669 8.14792 12.6574 7.7574C13.0479 7.36688 13.0479 6.73371 12.6574 6.34319L11.2432 7.7574ZM2.75789 7.7574L7.70764 2.80765L6.29342 1.39344L1.34367 6.34319L2.75789 7.7574ZM6.29342 2.80765L11.2432 7.7574L12.6574 6.34319L7.70764 1.39344L6.29342 2.80765Z" fill="#ADADAD"/>
</svg>
