<svg width="38" height="54" viewBox="0 0 38 54" fill="none" xmlns="http://www.w3.org/2000/svg">
<rect x="3" y="8" width="32" height="45" fill="white"/>
<rect x="2" y="5" width="34" height="3" fill="white"/>
<rect x="14" y="0.863525" width="12" height="3.27273" fill="white"/>
<path fill-rule="evenodd" clip-rule="evenodd" d="M14 0H15.6875H24.3125H26V0.3125V1.6875V2H24.3125H15.6875H14V1.6875V0.3125V0ZM2.15625 8.84366H1.28125H0.4375V7.99991V5.99991H2V5.6875V4.3125V4H3.6875H12V3.6875V2.3125V2H12.3125H13.6875H14V2.3125V3.6875V4H26V3.6875V2.3125V2H26.3125H27.6875H28V2.3125V3.6875V4H34.3125H36V4.3125V5.6875V6H34.3125H3.6875H2.125V7.15616H35.875V6.00007H37.5625V7.99991V8.84366H36.7188H35.8438V53V53.8438H35H3H2.15625V53V8.84366ZM3.84375 8.84366V52.1562H34.1562V8.84366H3.84375ZM29.125 11.8125H30.8125V13.5H29.125V11.8125ZM29.125 47.25H27.4375V45.5625V15.1875V13.5H29.125V15.1875V45.5625V47.25ZM29.125 47.25H30.8125V48.9375H29.125V47.25ZM24.0625 11.8125H22.375V13.5H20.6875V15.1875V45.5625V47.25H22.375V48.9375H24.0625V47.25H22.375V45.5625V15.1875V13.5H24.0625V11.8125ZM15.625 11.8125H17.3125V13.5H15.625V11.8125ZM15.625 47.25H13.9375V45.5625V15.1875V13.5H15.625V15.1875V45.5625V47.25ZM15.625 47.25H17.3125V48.9375H15.625V47.25ZM8.875 11.8125H10.5625V13.5H8.875V11.8125ZM8.875 47.25H7.1875V45.5625V15.1875V13.5H8.875V15.1875V45.5625V47.25ZM8.875 47.25H10.5625V48.9375H8.875V47.25Z" fill="black"/>
</svg>
