<svg width="56" height="59" viewBox="0 0 56 59" fill="none" xmlns="http://www.w3.org/2000/svg">
<path d="M7.95752 5.8963L10.0155 12.0006H19.7909L23.3923 8.67099L19.7909 2.01172H13.6169L7.95752 5.8963Z" fill="#2D2C28"/>
<path d="M33.1641 16.3027L27.4835 13.2249L29.181 3.63994L33.0998 0.686833L39.0612 5.37449L37.9891 11.4281L33.1641 16.3027Z" fill="#2D2C28"/>
<path d="M18.2849 10.7865L22.6297 13.4317L28.5265 8.50526L29.0063 4.68169L23.4483 2.47961L19.724 5.59107L18.2849 10.7865Z" fill="#2D2C28"/>
<path d="M49.581 8.81492L46.4069 12.7801L39.1734 10.1588L37.4091 6.7292L41.8755 2.76725L46.444 4.42282L49.581 8.81492Z" fill="#2D2C28"/>
<path d="M8.23415 18.3073C7.48045 17.2885 8.20772 15.8458 9.47497 15.8458H50.7191C51.7299 15.8458 52.4679 16.8013 52.2125 17.7793L42.7867 53.8747C42.7199 54.1304 42.5886 54.3647 42.4053 54.5551L38.8806 58.217C38.5494 58.5612 37.9883 58.5248 37.7042 58.1409L8.23415 18.3073Z" fill="#2D2C28"/>
<rect x="4.87012" y="8.93042" width="50.163" height="9.22054" rx="1.54348" fill="#2D2C28"/>
<path d="M4.87061 8.20477L6.92858 14.3091H16.7039L20.3054 10.9795L16.7039 4.32019H10.53L4.87061 8.20477Z" fill="#FCF6E8" stroke="#2D2C28" stroke-width="2.31522" stroke-linejoin="round"/>
<path d="M30.0771 18.6112L24.3966 15.5333L26.0941 5.94841L30.0129 2.9953L35.9743 7.68296L34.9022 13.7366L30.0771 18.6112Z" fill="#FCF6E8" stroke="#2D2C28" stroke-width="2.31522" stroke-linejoin="round"/>
<path d="M15.1995 13.095L19.5443 15.7402L25.4411 10.8137L25.9209 6.99017L20.3629 4.78809L16.6386 7.89954L15.1995 13.095Z" fill="#FCF6E8" stroke="#2D2C28" stroke-width="2.31522" stroke-linejoin="round"/>
<path d="M46.4941 11.1234L43.32 15.0886L36.0865 12.4673L34.3222 9.03767L38.7886 5.07572L43.3571 6.73129L46.4941 11.1234Z" fill="#FCF6E8" stroke="#2D2C28" stroke-width="2.31522" stroke-linejoin="round"/>
<path d="M3.35217 17.477C3.29574 17.235 3.47945 17.0036 3.72795 17.0036H46.9145C47.163 17.0036 47.3468 17.235 47.2903 17.477L48.3663 17.7279L47.2903 17.477L37.9775 57.4193C37.9367 57.5939 37.781 57.7175 37.6017 57.7175H13.0408C12.8615 57.7175 12.7057 57.5939 12.665 57.4193L3.35217 17.477Z" fill="#FCF6E8" stroke="#2D2C28" stroke-width="2.31522"/>
<mask id="mask0" mask-type="alpha" maskUnits="userSpaceOnUse" x="2" y="15" width="47" height="44">
<path d="M3.35217 17.477C3.29574 17.235 3.47945 17.0036 3.72795 17.0036H46.9145C47.163 17.0036 47.3468 17.235 47.2903 17.477L48.3663 17.7279L47.2903 17.477L37.9775 57.4193C37.9367 57.5939 37.781 57.7175 37.6017 57.7175H13.0408C12.8615 57.7175 12.7057 57.5939 12.665 57.4193L3.35217 17.477Z" fill="#FCF6E8" stroke="#2D2C28" stroke-width="2.31522"/>
</mask>
<g mask="url(#mask0)">
<path d="M7.18604 19.6879L44.2295 56.57" stroke="#2D2C28" stroke-width="2.31522"/>
<path d="M44.229 19.6879L7.18552 56.57" stroke="#2D2C28" stroke-width="2.31522"/>
<path d="M51.9463 27.3716L14.9028 64.2538" stroke="#2D2C28" stroke-width="2.31522"/>
<path d="M59.6641 35.0554L22.6206 71.9376" stroke="#2D2C28" stroke-width="2.31522"/>
<path d="M35.7397 12.004L-1.30373 48.8862" stroke="#2D2C28" stroke-width="2.31522"/>
<path d="M27.251 4.32031L-9.7925 41.2025" stroke="#2D2C28" stroke-width="2.31522"/>
<path d="M-0.531738 27.3716L36.5117 64.2538" stroke="#2D2C28" stroke-width="2.31522"/>
<path d="M-8.24951 35.0554L28.794 71.9376" stroke="#2D2C28" stroke-width="2.31522"/>
<path d="M14.9028 12.004L51.9463 48.8862" stroke="#2D2C28" stroke-width="2.31522"/>
<path d="M37.2832 19.6879L58.1202 39.6657" stroke="#2D2C28" stroke-width="2.31522"/>
</g>
<mask id="path-23-inside-1" fill="white">
<rect x="0.240234" y="9.69885" width="50.163" height="10.7573" rx="1.54348"/>
</mask>
<rect x="0.240234" y="9.69885" width="50.163" height="10.7573" rx="1.54348" fill="#FCF6E8" stroke="#2D2C28" stroke-width="4.63044" mask="url(#path-23-inside-1)"/>
</svg>
