<svg width="67" height="53" viewBox="0 0 67 53" fill="none" xmlns="http://www.w3.org/2000/svg">
<path d="M57.5879 7.92825C57.5879 7.07581 56.8969 6.38477 56.0444 6.38477H31.9417C31.0893 6.38477 30.3982 7.0758 30.3982 7.92824V11.7644C30.3982 12.6168 29.7072 13.3078 28.8548 13.3078H10.19C9.33755 13.3078 8.64651 13.9989 8.64651 14.8513V49.4567C8.64651 50.3091 9.33755 51.0001 10.19 51.0001H56.0444C56.8969 51.0001 57.5879 50.3091 57.5879 49.4567V7.92825Z" fill="#2D2C28" stroke="#2D2C28" stroke-width="2.31522"/>
<rect width="30.7098" height="42.9072" rx="2.31522" transform="matrix(-0.571308 0.820736 0.817559 0.575845 30.9209 1)" fill="#FCF6E8" stroke="#2D2C28" stroke-width="2"/>
<rect width="18.4259" height="2.2986" rx="1.1493" transform="matrix(-0.571308 0.820736 0.817559 0.575845 33.0508 10.0117)" fill="#2D2C28"/>
<rect width="18.4259" height="2.2986" rx="1.1493" transform="matrix(-0.571308 0.820736 0.817559 0.575845 38.6885 13.9829)" fill="#2D2C28"/>
<rect width="18.4259" height="2.2986" rx="1.1493" transform="matrix(-0.571308 0.820736 0.817559 0.575845 44.3262 17.9536)" fill="#2D2C28"/>
<rect width="18.4259" height="2.2986" rx="1.1493" transform="matrix(-0.571308 0.820736 0.817559 0.575845 49.9639 21.9248)" fill="#2D2C28"/>
<rect width="18.4259" height="2.2986" rx="1.1493" transform="matrix(-0.571308 0.820736 0.817559 0.575845 55.6016 25.8955)" fill="#2D2C28"/>
<path d="M50.4806 22.6441C50.1651 21.2337 48.9134 20.231 47.4681 20.231H4.8532C2.87657 20.231 1.40922 22.0628 1.84068 23.9917L7.74692 50.3969C7.82579 50.7495 8.13874 51.0002 8.50005 51.0002H55.8598C56.354 51.0002 56.7208 50.5422 56.6129 50.06L50.4806 22.6441Z" fill="#DECBEA" stroke="#2D2C28" stroke-width="2"/>
</svg>
