<svg width="38" height="49" viewBox="0 0 38 49" fill="none" xmlns="http://www.w3.org/2000/svg">
<path d="M2 1H36V49H2V1Z" fill="white"/>
<path fill-rule="evenodd" clip-rule="evenodd" d="M36 0H2V2H0V41H2V43V47V49H4H34H36V47V43V41H38V2H36V0ZM36 2V41H34H4H2V2H36ZM34 43V47H4V43H34ZM7 7H5V25H7V27H31V25H33V7H31V5H7V7ZM7 7H31V25H7V7ZM19 35V33H31V35H19ZM10 8H8V10H10V8ZM11 8H13V10H11V8ZM16 8H14V10H16V8ZM17 8H19V10H17V8ZM10 11H8V13H10V11ZM11 11H13V13H11V11ZM16 11H14V13H16V11ZM8 20H10V22H8V20ZM13 20H11V22H13V20ZM14 20H16V22H14V20ZM19 11H17V13H19V11ZM8 14H10V16H8V14ZM13 14H11V16H13V14ZM8 17H10V19H8V17ZM13 17H11V19H13V17ZM20 8H22V10H20V8ZM25 8H23V10H25V8Z" fill="black"/>
</svg>
