<svg width="55" height="56" viewBox="0 0 55 56" fill="none" xmlns="http://www.w3.org/2000/svg">
<path d="M6.00049 2.77174C6.00049 2.34552 6.34601 2 6.77223 2H40.1526C40.3543 2 40.5479 2.07891 40.6921 2.21983L52.7682 14.0229C52.9167 14.1681 53.0005 14.3671 53.0005 14.5748V50.2283C53.0005 50.6545 52.655 51 52.2288 51H6.77223C6.34601 51 6.00049 50.6545 6.00049 50.2283V2.77174Z" fill="#2D2C28" stroke="#2D2C28" stroke-width="2.31522"/>
<path d="M1.00049 8C1.00049 6.89543 1.89592 6 3.00049 6H34.6521C35.1746 6 35.6764 6.20449 36.05 6.56971L47.3984 17.6616C47.7835 18.0379 48.0005 18.5535 48.0005 19.0919V53C48.0005 54.1046 47.1051 55 46.0005 55H3.00049C1.89592 55 1.00049 54.1046 1.00049 53V8Z" fill="#FCF6E8" stroke="#2D2C28" stroke-width="2"/>
<path d="M15.0005 7.54348C15.0005 6.69104 15.6915 6 16.544 6H31.457C32.3095 6 33.0005 6.69104 33.0005 7.54348V14.4565C33.0005 15.309 32.3095 16 31.457 16H16.544C15.6915 16 15.0005 15.309 15.0005 14.4565V7.54348Z" stroke="#2D2C28" stroke-width="2"/>
<path d="M11.0005 26.5435C11.0005 25.691 11.6915 25 12.544 25H36.457C37.3094 25 38.0005 25.691 38.0005 26.5435V55H11.0005V26.5435Z" stroke="#2D2C28" stroke-width="2"/>
<path d="M15.0005 31C15.0005 30.4477 15.4482 30 16.0005 30H33.0005C33.5528 30 34.0005 30.4477 34.0005 31C34.0005 31.5523 33.5528 32 33.0005 32H16.0005C15.4482 32 15.0005 31.5523 15.0005 31Z" fill="#2D2C28"/>
<path d="M15.0005 37C15.0005 36.4477 15.4482 36 16.0005 36H33.0005C33.5528 36 34.0005 36.4477 34.0005 37C34.0005 37.5523 33.5528 38 33.0005 38H16.0005C15.4482 38 15.0005 37.5523 15.0005 37Z" fill="#2D2C28"/>
<path d="M15.0005 43C15.0005 42.4477 15.4482 42 16.0005 42H33.0005C33.5528 42 34.0005 42.4477 34.0005 43C34.0005 43.5523 33.5528 44 33.0005 44H16.0005C15.4482 44 15.0005 43.5523 15.0005 43Z" fill="#2D2C28"/>
<path d="M15.0005 49C15.0005 48.4477 15.4482 48 16.0005 48H33.0005C33.5528 48 34.0005 48.4477 34.0005 49C34.0005 49.5523 33.5528 50 33.0005 50H16.0005C15.4482 50 15.0005 49.5523 15.0005 49Z" fill="#2D2C28"/>
</svg>
