<svg width="24" height="24" viewBox="0 0 24 24" fill="none" xmlns="http://www.w3.org/2000/svg">
<path d="M3 1.15039C1.97849 1.15039 1.15039 1.97849 1.15039 3V18.9771C1.15039 19.4676 1.34526 19.9381 1.69213 20.285L3.71503 22.3079C4.0619 22.6547 4.53236 22.8496 5.02291 22.8496H21C22.0215 22.8496 22.8496 22.0215 22.8496 21V3C22.8496 1.97849 22.0215 1.15039 21 1.15039H3Z" fill="#2D2C28" stroke="#2D2C28" stroke-width="1.69923"/>
<path d="M6 2C4.89543 2 4 2.89543 4 4V12C4 13.1046 4.89543 14 6 14H18C19.1046 14 20 13.1046 20 12V4C20 2.89543 19.1046 2 18 2H6Z" fill="#FCF6E8" stroke="#2D2C28" stroke-width="2"/>
<path d="M16 22.8496H16.8496V22V19V16.8496C16.8496 15.9112 16.0888 15.1504 15.1504 15.1504H7.84961C6.91116 15.1504 6.15039 15.9112 6.15039 16.8496V22V22.8496H7H16Z" fill="#FCF6E8" stroke="#2D2C28" stroke-width="1.69923"/>
<path d="M8.63867 17.9692C8.63867 17.5 9.01906 17.1196 9.48829 17.1196C9.95752 17.1196 10.3379 17.5 10.3379 17.9692V19.2437V20.5181C10.3379 20.9873 9.95752 21.3677 9.48829 21.3677C9.01906 21.3677 8.63867 20.9873 8.63867 20.5181V17.9692Z" fill="#2D2C28"/>
</svg>
